<svg width="22" height="21" viewBox="0 0 22 21" fill="none" xmlns="http://www.w3.org/2000/svg">
<path d="M21.4232 7.61812C21.3294 7.32986 21.1524 7.0758 20.9145 6.88795C20.6766 6.7001 20.3885 6.58686 20.0863 6.56249L14.5551 6.11624L12.4194 0.951554C12.3039 0.670133 12.1074 0.429412 11.8547 0.259996C11.6021 0.0905804 11.3047 0.00012207 11.0005 0.00012207C10.6963 0.00012207 10.399 0.0905804 10.1463 0.259996C9.89369 0.429412 9.69712 0.670133 9.58163 0.951554L7.44788 6.1153L1.91381 6.56249C1.61117 6.58809 1.3228 6.70243 1.08485 6.89118C0.8469 7.07994 0.669943 7.33472 0.576151 7.62361C0.482359 7.91249 0.475904 8.22263 0.557593 8.51516C0.639283 8.8077 0.805485 9.06962 1.03538 9.26812L5.25413 12.9084L3.96881 18.3516C3.89693 18.6473 3.91453 18.9577 4.01938 19.2434C4.12423 19.5291 4.3116 19.7771 4.55771 19.9562C4.80382 20.1352 5.09757 20.237 5.40167 20.2488C5.70576 20.2605 6.0065 20.1817 6.26569 20.0222L11.0001 17.1084L15.7373 20.0222C15.9965 20.1798 16.2967 20.2571 16.5998 20.2445C16.903 20.2318 17.1956 20.1298 17.4409 19.9512C17.6861 19.7725 17.8731 19.5254 17.9782 19.2407C18.0832 18.9561 18.1017 18.6467 18.0313 18.3516L16.7413 12.9075L20.9601 9.26718C21.1918 9.06902 21.3595 8.80652 21.442 8.51296C21.5244 8.21939 21.5179 7.90796 21.4232 7.61812Z" fill="white"/>
</svg>
