<svg width="22" height="21" viewBox="0 0 22 21" fill="none" xmlns="http://www.w3.org/2000/svg">
<path d="M21.4231 7.61812C21.3293 7.32986 21.1523 7.0758 20.9144 6.88795C20.6765 6.7001 20.3883 6.58686 20.0862 6.56249L14.5549 6.11624L12.4193 0.951554C12.3038 0.670133 12.1072 0.429412 11.8546 0.259996C11.6019 0.0905804 11.3046 0.00012207 11.0004 0.00012207C10.6962 0.00012207 10.3989 0.0905804 10.1462 0.259996C9.89357 0.429412 9.697 0.670133 9.5815 0.951554L7.44775 6.11531L1.91369 6.56249C1.61104 6.58809 1.32268 6.70243 1.08473 6.89119C0.846778 7.07994 0.669821 7.33472 0.576029 7.62361C0.482237 7.91249 0.475782 8.22263 0.557471 8.51516C0.639161 8.8077 0.805363 9.06962 1.03525 9.26812L5.254 12.9084L3.96869 18.3516C3.89681 18.6473 3.91441 18.9577 4.01926 19.2434C4.12411 19.5291 4.31148 19.7771 4.55759 19.9562C4.8037 20.1352 5.09745 20.237 5.40154 20.2488C5.70564 20.2605 6.00637 20.1817 6.26557 20.0222L10.9999 17.1084L15.7371 20.0222C15.9964 20.1798 16.2965 20.2571 16.5997 20.2445C16.9028 20.2318 17.1955 20.1298 17.4408 19.9512C17.686 19.7726 17.873 19.5254 17.978 19.2407C18.0831 18.9561 18.1016 18.6467 18.0312 18.3516L16.7412 12.9075L20.9599 9.26718C21.1917 9.06902 21.3594 8.80653 21.4419 8.51296C21.5243 8.21939 21.5178 7.90796 21.4231 7.61812ZM19.9849 8.13093L15.4193 12.0684C15.3152 12.1582 15.2377 12.2748 15.1954 12.4056C15.1531 12.5364 15.1475 12.6763 15.1793 12.81L16.5743 18.6975C16.5779 18.7056 16.5783 18.7148 16.5753 18.7232C16.5724 18.7315 16.5663 18.7385 16.5584 18.7425C16.5415 18.7556 16.5368 18.7528 16.5228 18.7425L11.3928 15.5878C11.2746 15.5152 11.1386 15.4767 10.9999 15.4767C10.8612 15.4767 10.7253 15.5152 10.6071 15.5878L5.47713 18.7444C5.46307 18.7528 5.45932 18.7556 5.4415 18.7444C5.43359 18.7403 5.42753 18.7334 5.42456 18.725C5.4216 18.7167 5.42196 18.7075 5.42557 18.6994L6.82057 12.8119C6.85236 12.6781 6.84679 12.5382 6.80446 12.4075C6.76214 12.2767 6.68468 12.16 6.58057 12.0703L2.01494 8.1328C2.00369 8.12343 1.99338 8.11499 2.00275 8.08593C2.01213 8.05687 2.01963 8.06062 2.03369 8.05874L8.02619 7.57499C8.16364 7.5632 8.29517 7.51373 8.40632 7.43203C8.51747 7.35032 8.60393 7.23954 8.65619 7.11187L10.9643 1.52343C10.9718 1.50749 10.9746 1.49999 10.9971 1.49999C11.0196 1.49999 11.0224 1.50749 11.0299 1.52343L13.3437 7.11187C13.3964 7.23958 13.4835 7.35025 13.5951 7.43164C13.7068 7.51303 13.8388 7.56199 13.9765 7.57312L19.969 8.05687C19.9831 8.05687 19.9915 8.05687 19.9999 8.08405C20.0084 8.11124 19.9999 8.12156 19.9849 8.13093Z" fill="white"/>
</svg>
